<?xml version="1.0" encoding="utf-8"?>
<svg version="1.1" xmlns:xlink="http://www.w3.org/1999/xlink" width="16px" height="16px" xmlns="http://www.w3.org/2000/svg">
  <g transform="matrix(1 0 0 1 -899 -737 )">
    <path d="M 1.2307692307692308 12.285714285714285  L 1.2307692307692308 14.857142857142858  L 4 14.857142857142858  L 4 12.285714285714285  L 1.2307692307692308 12.285714285714285  Z M 4.615384615384615 12.285714285714285  L 4.615384615384615 14.857142857142858  L 7.6923076923076925 14.857142857142858  L 7.6923076923076925 12.285714285714285  L 4.615384615384615 12.285714285714285  Z M 1.2307692307692308 8.857142857142858  L 1.2307692307692308 11.714285714285715  L 4 11.714285714285715  L 4 8.857142857142858  L 1.2307692307692308 8.857142857142858  Z M 4.615384615384615 8.857142857142858  L 4.615384615384615 11.714285714285715  L 7.6923076923076925 11.714285714285715  L 7.6923076923076925 8.857142857142858  L 4.615384615384615 8.857142857142858  Z M 1.2307692307692308 5.7142857142857135  L 1.2307692307692308 8.285714285714285  L 4 8.285714285714285  L 4 5.7142857142857135  L 1.2307692307692308 5.7142857142857135  Z M 8.307692307692308 12.285714285714285  L 8.307692307692308 14.857142857142858  L 11.384615384615385 14.857142857142858  L 11.384615384615385 12.285714285714285  L 8.307692307692308 12.285714285714285  Z M 4.615384615384615 5.7142857142857135  L 4.615384615384615 8.285714285714285  L 7.6923076923076925 8.285714285714285  L 7.6923076923076925 5.7142857142857135  L 4.615384615384615 5.7142857142857135  Z M 12 12.285714285714285  L 12 14.857142857142858  L 14.76923076923077 14.857142857142858  L 14.76923076923077 12.285714285714285  L 12 12.285714285714285  Z M 8.307692307692308 8.857142857142858  L 8.307692307692308 11.714285714285715  L 11.384615384615385 11.714285714285715  L 11.384615384615385 8.857142857142858  L 8.307692307692308 8.857142857142858  Z M 4.831730769230769 4.200892857142858  C 4.892628205128205 4.144345238095237  4.923076923076923 4.077380952380951  4.923076923076923 4  L 4.923076923076923 1.4285714285714288  C 4.923076923076923 1.3511904761904763  4.892628205128205 1.2842261904761898  4.831730769230769 1.2276785714285712  C 4.770833333333334 1.1711309523809508  4.698717948717949 1.1428571428571423  4.615384615384615 1.1428571428571423  L 4 1.1428571428571423  C 3.916666666666667 1.1428571428571423  3.8445512820512824 1.1711309523809508  3.7836538461538463 1.2276785714285712  C 3.7227564102564097 1.2842261904761898  3.6923076923076925 1.3511904761904763  3.6923076923076925 1.4285714285714288  L 3.6923076923076925 4  C 3.6923076923076925 4.077380952380951  3.7227564102564097 4.144345238095237  3.7836538461538463 4.200892857142858  C 3.8445512820512824 4.257440476190476  3.916666666666667 4.2857142857142865  4 4.2857142857142865  L 4.615384615384615 4.2857142857142865  C 4.698717948717949 4.2857142857142865  4.770833333333334 4.257440476190476  4.831730769230769 4.200892857142858  Z M 12 8.857142857142858  L 12 11.714285714285715  L 14.76923076923077 11.714285714285715  L 14.76923076923077 8.857142857142858  L 12 8.857142857142858  Z M 8.307692307692308 5.7142857142857135  L 8.307692307692308 8.285714285714285  L 11.384615384615385 8.285714285714285  L 11.384615384615385 5.7142857142857135  L 8.307692307692308 5.7142857142857135  Z M 12 5.7142857142857135  L 12 8.285714285714285  L 14.76923076923077 8.285714285714285  L 14.76923076923077 5.7142857142857135  L 12 5.7142857142857135  Z M 12.216346153846153 4.200892857142858  C 12.277243589743591 4.144345238095237  12.307692307692308 4.077380952380951  12.307692307692308 4  L 12.307692307692308 1.4285714285714288  C 12.307692307692308 1.3511904761904763  12.277243589743591 1.2842261904761898  12.216346153846153 1.2276785714285712  C 12.155448717948719 1.1711309523809508  12.083333333333334 1.1428571428571423  12 1.1428571428571423  L 11.384615384615385 1.1428571428571423  C 11.301282051282053 1.1428571428571423  11.229166666666668 1.1711309523809508  11.16826923076923 1.2276785714285712  C 11.107371794871796 1.2842261904761898  11.076923076923077 1.3511904761904763  11.076923076923077 1.4285714285714288  L 11.076923076923077 4  C 11.076923076923077 4.077380952380951  11.107371794871796 4.144345238095237  11.16826923076923 4.200892857142858  C 11.229166666666668 4.257440476190476  11.301282051282053 4.2857142857142865  11.384615384615385 4.2857142857142865  L 12 4.2857142857142865  C 12.083333333333334 4.2857142857142865  12.155448717948719 4.257440476190476  12.216346153846153 4.200892857142858  Z M 15.634615384615385 2.625  C 15.87820512820513 2.8511904761904763  16 3.1190476190476186  16 3.428571428571429  L 16 14.857142857142858  C 16 15.166666666666668  15.87820512820513 15.43452380952381  15.634615384615385 15.660714285714286  C 15.391025641025642 15.886904761904761  15.102564102564104 16  14.76923076923077 16  L 1.2307692307692308 16  C 0.8974358974358976 16  0.608974358974359 15.886904761904761  0.36538461538461536 15.660714285714286  C 0.12179487179487179 15.43452380952381  0 15.166666666666668  0 14.857142857142858  L 0 3.428571428571429  C 0 3.1190476190476186  0.12179487179487179 2.8511904761904763  0.36538461538461536 2.625  C 0.608974358974359 2.398809523809522  0.8974358974358976 2.2857142857142865  1.2307692307692308 2.2857142857142865  L 2.4615384615384617 2.2857142857142865  L 2.4615384615384617 1.4285714285714288  C 2.4615384615384617 1.0357142857142865  2.6121794871794872 0.699404761904761  2.9134615384615383 0.41964285714285765  C 3.2147435897435903 0.13988095238095255  3.576923076923077 0  4 0  L 4.615384615384615 0  C 5.038461538461538 0  5.400641025641026 0.13988095238095255  5.701923076923077 0.41964285714285765  C 6.003205128205129 0.699404761904761  6.153846153846154 1.0357142857142865  6.153846153846154 1.4285714285714288  L 6.153846153846154 2.2857142857142865  L 9.846153846153847 2.2857142857142865  L 9.846153846153847 1.4285714285714288  C 9.846153846153847 1.0357142857142865  9.996794871794872 0.699404761904761  10.298076923076923 0.41964285714285765  C 10.599358974358976 0.13988095238095255  10.961538461538462 0  11.384615384615385 0  L 12 0  C 12.423076923076923 0  12.78525641025641 0.13988095238095255  13.086538461538462 0.41964285714285765  C 13.387820512820515 0.699404761904761  13.538461538461538 1.0357142857142865  13.538461538461538 1.4285714285714288  L 13.538461538461538 2.2857142857142865  L 14.76923076923077 2.2857142857142865  C 15.102564102564104 2.2857142857142865  15.391025641025642 2.398809523809522  15.634615384615385 2.625  Z " fill-rule="nonzero" fill="#757575" stroke="none" transform="matrix(1 0 0 1 899 737 )" />
  </g>
</svg>