<?xml version="1.0" encoding="utf-8"?>
<svg version="1.1" xmlns:xlink="http://www.w3.org/1999/xlink" width="6px" height="11px" xmlns="http://www.w3.org/2000/svg">
  <g transform="matrix(1 0 0 1 -379 -35 )">
    <path d="M 5.896907216494845 5.246492985971944  C 5.965635738831616 5.319973279893119  6 5.404475617902471  6 5.5  C 6 5.595524382097528  5.965635738831616 5.68002672010688  5.896907216494845 5.753507014028056  L 1.092783505154639 10.889779559118237  C 1.0240549828178693 10.963259853039412  0.9450171821305842 11  0.8556701030927835 11  C 0.766323024054983 11  0.6872852233676976 10.963259853039412  0.6185567010309279 10.889779559118237  L 0.10309278350515465 10.33867735470942  C 0.0343642611683849 10.265197060788243  0 10.180694722778892  0 10.085170340681362  C 0 9.989645958583834  0.0343642611683849 9.905143620574483  0.10309278350515465 9.831663326653306  L 4.154639175257731 5.5  L 0.10309278350515465 1.1683366733466933  C 0.0343642611683849 1.0948563794255173  0 1.0103540414161651  0 0.9148296593186376  C 0 0.8193052772211075  0.0343642611683849 0.7348029392117555  0.10309278350515465 0.6613226452905806  L 0.6185567010309279 0.11022044088176364  C 0.6872852233676976 0.03674014696058747  0.766323024054983 0  0.8556701030927835 0  C 0.9450171821305842 0  1.0240549828178693 0.03674014696058747  1.092783505154639 0.11022044088176364  L 5.896907216494845 5.246492985971944  Z " fill-rule="nonzero" fill="#000000" stroke="none" transform="matrix(1 0 0 1 379 35 )" />
  </g>
</svg>