<?xml version="1.0" encoding="utf-8"?>
<svg version="1.1" xmlns:xlink="http://www.w3.org/1999/xlink" width="6px" height="11px" xmlns="http://www.w3.org/2000/svg">
  <g transform="matrix(1 0 0 1 -203 -35 )">
    <path d="M 5.896907216494845 0.6613226452905806  C 5.965635738831616 0.7348029392117555  6 0.8193052772211075  6 0.9148296593186376  C 6 1.0103540414161651  5.965635738831616 1.0948563794255173  5.896907216494845 1.1683366733466933  L 1.8453608247422681 5.5  L 5.896907216494845 9.831663326653306  C 5.965635738831616 9.905143620574483  6 9.989645958583834  6 10.085170340681362  C 6 10.180694722778892  5.965635738831616 10.265197060788243  5.896907216494845 10.33867735470942  L 5.381443298969073 10.889779559118237  C 5.312714776632303 10.963259853039412  5.233676975945018 11  5.144329896907216 11  C 5.0549828178694165 11  4.975945017182132 10.963259853039412  4.907216494845361 10.889779559118237  L 0.10309278350515465 5.753507014028056  C 0.0343642611683849 5.68002672010688  0 5.595524382097528  0 5.5  C 0 5.404475617902471  0.0343642611683849 5.319973279893119  0.10309278350515465 5.246492985971944  L 4.907216494845361 0.11022044088176364  C 4.975945017182132 0.03674014696058747  5.0549828178694165 0  5.144329896907216 0  C 5.233676975945018 0  5.312714776632303 0.03674014696058747  5.381443298969073 0.11022044088176364  L 5.896907216494845 0.6613226452905806  Z " fill-rule="nonzero" fill="#c2c2c2" stroke="none" transform="matrix(1 0 0 1 203 35 )" />
  </g>
</svg>