<?xml version="1.0" encoding="utf-8"?>
<svg version="1.1" xmlns:xlink="http://www.w3.org/1999/xlink" width="17px" height="17px" viewBox="344 655  17 17" xmlns="http://www.w3.org/2000/svg">
  <path d="M 352.5 655  C 357.26 655  361 658.74  361 663.5  C 361 668.26  357.26 672  352.5 672  C 347.74 672  344 668.26  344 663.5  C 344 658.74  347.74 655  352.5 655  Z " fill-rule="nonzero" fill="#f0f0f0" stroke="none" />
  <path d="M 352.5 655.5  C 356.98 655.5  360.5 659.02  360.5 663.5  C 360.5 667.98  356.98 671.5  352.5 671.5  C 348.02 671.5  344.5 667.98  344.5 663.5  C 344.5 659.02  348.02 655.5  352.5 655.5  Z " stroke-width="1" stroke="#797979" fill="none" />
  <path d="M 352.5 667.75  C 350.12 667.75  348.25 665.88  348.25 663.5  C 348.25 661.12  350.12 659.25  352.5 659.25  C 354.88 659.25  356.75 661.12  356.75 663.5  C 356.75 665.88  354.88 667.75  352.5 667.75  " fill-rule="nonzero" fill="#797979" stroke="none" />
</svg>