<?xml version="1.0" encoding="utf-8"?>
<svg version="1.1" xmlns:xlink="http://www.w3.org/1999/xlink" width="17px" height="17px" viewBox="344 869  17 17" xmlns="http://www.w3.org/2000/svg">
  <path d="M 352.5 869  C 357.26 869  361 872.74  361 877.5  C 361 882.26  357.26 886  352.5 886  C 347.74 886  344 882.26  344 877.5  C 344 872.74  347.74 869  352.5 869  Z " fill-rule="nonzero" fill="#ffffff" stroke="none" />
  <path d="M 352.5 869.5  C 356.98 869.5  360.5 873.02  360.5 877.5  C 360.5 881.98  356.98 885.5  352.5 885.5  C 348.02 885.5  344.5 881.98  344.5 877.5  C 344.5 873.02  348.02 869.5  352.5 869.5  Z " stroke-width="1" stroke="#797979" fill="none" />
  <path d="M 352.5 881.75  C 350.12 881.75  348.25 879.88  348.25 877.5  C 348.25 875.12  350.12 873.25  352.5 873.25  C 354.88 873.25  356.75 875.12  356.75 877.5  C 356.75 879.88  354.88 881.75  352.5 881.75  " fill-rule="nonzero" fill="#797979" stroke="none" />
</svg>