<?xml version="1.0" encoding="utf-8"?>
<svg version="1.1" xmlns:xlink="http://www.w3.org/1999/xlink" width="17px" height="17px" viewBox="344 825  17 17" xmlns="http://www.w3.org/2000/svg">
  <path d="M 352.5 825  C 357.26 825  361 828.74  361 833.5  C 361 838.26  357.26 842  352.5 842  C 347.74 842  344 838.26  344 833.5  C 344 828.74  347.74 825  352.5 825  Z " fill-rule="nonzero" fill="#f0f0f0" stroke="none" />
  <path d="M 352.5 825.5  C 356.98 825.5  360.5 829.02  360.5 833.5  C 360.5 837.98  356.98 841.5  352.5 841.5  C 348.02 841.5  344.5 837.98  344.5 833.5  C 344.5 829.02  348.02 825.5  352.5 825.5  Z " stroke-width="1" stroke="#797979" fill="none" />
  <path d="M 352.5 837.75  C 350.12 837.75  348.25 835.88  348.25 833.5  C 348.25 831.12  350.12 829.25  352.5 829.25  C 354.88 829.25  356.75 831.12  356.75 833.5  C 356.75 835.88  354.88 837.75  352.5 837.75  " fill-rule="nonzero" fill="#797979" stroke="none" />
</svg>