<?xml version="1.0" encoding="utf-8"?>
<svg version="1.1" xmlns:xlink="http://www.w3.org/1999/xlink" width="17px" height="17px" viewBox="344 913  17 17" xmlns="http://www.w3.org/2000/svg">
  <path d="M 352.5 913  C 357.26 913  361 916.74  361 921.5  C 361 926.26  357.26 930  352.5 930  C 347.74 930  344 926.26  344 921.5  C 344 916.74  347.74 913  352.5 913  Z " fill-rule="nonzero" fill="#ffffff" stroke="none" />
  <path d="M 352.5 913.5  C 356.98 913.5  360.5 917.02  360.5 921.5  C 360.5 925.98  356.98 929.5  352.5 929.5  C 348.02 929.5  344.5 925.98  344.5 921.5  C 344.5 917.02  348.02 913.5  352.5 913.5  Z " stroke-width="1" stroke="#797979" fill="none" />
  <path d="M 352.5 925.75  C 350.12 925.75  348.25 923.88  348.25 921.5  C 348.25 919.12  350.12 917.25  352.5 917.25  C 354.88 917.25  356.75 919.12  356.75 921.5  C 356.75 923.88  354.88 925.75  352.5 925.75  " fill-rule="nonzero" fill="#797979" stroke="none" />
</svg>