<?xml version="1.0" encoding="utf-8"?>
<svg version="1.1" xmlns:xlink="http://www.w3.org/1999/xlink" width="25px" height="23px" xmlns="http://www.w3.org/2000/svg">
  <g transform="matrix(1 0 0 1 -404 -75 )">
    <path d="M 23.72448979591837 4.597005208333332  C 24.1046418567427 4.746744791666668  24.399759903961584 4.961371527777776  24.60984393757503 5.240885416666668  C 25.010004001600638 5.809895833333332  25.100040016006403 6.453776041666668  24.879951980792317 7.172526041666668  L 20.753301320528212 20.738932291666668  C 20.56322529011605 21.377821180555557  20.180572228891556 21.914388020833332  19.60534213685474 22.3486328125  C 19.03011204481793 22.782877604166668  18.417366946778714 23  17.767106842737096 23  L 3.9165666266506602 23  C 3.1462585034013606 23  2.4034613845538217 22.732964409722225  1.6881752701080432 22.198893229166668  C 0.9728891556622651 21.66482204861111  0.47519007603041225 21.008463541666668  0.195078031212485 20.229817708333332  C -0.045018007202881155 19.560980902777775  -0.05502200880352141 18.927083333333332  0.16506602641056423 18.328125  C 0.16506602641056423 18.288194444444443  0.18007202881152462 18.153428819444443  0.21008403361344538 17.923828125  C 0.24009603841536614 17.694227430555554  0.2601040416166467 17.50954861111111  0.27010804321728693 17.369791666666668  C 0.2801120448179272 17.289930555555557  0.2651060424169668 17.1826171875  0.22509003601440575 17.0478515625  C 0.18507402961184474 16.9130859375  0.17006802721088438 16.815755208333336  0.18007202881152462 16.755859375  C 0.20008003201280514 16.64605034722222  0.24009603841536614 16.541232638888886  0.3001200480192077 16.44140625  C 0.36014405762304924 16.341579861111107  0.4426770708283313 16.224283854166664  0.5477190876350541 16.089518229166664  C 0.6527611044417767 15.954752604166664  0.7352941176470588 15.837456597222221  0.7953181272509003 15.737630208333336  C 1.0254101640656264 15.358289930555552  1.250500200080032 14.901584201388886  1.4705882352941175 14.367513020833336  C 1.6906762705082032 13.833441840277779  1.8407362945178072 13.376736111111109  1.9207683073229291 12.997395833333336  C 1.9507803121248497 12.897569444444443  1.9532813125250101 12.747829861111109  1.9282713085234093 12.548177083333336  C 1.903261304521809 12.348524305555557  1.9007603041216488 12.208767361111109  1.9207683073229291 12.12890625  C 1.9507803121248497 12.019097222222221  2.0358143257302923 11.879340277777779  2.175870348139256 11.709635416666664  C 2.3159263705482194 11.539930555555557  2.4009603841536618 11.425130208333332  2.430972388955582 11.365234375  C 2.6410564225690276 11.005859375  2.851140456182473 10.54665798611111  3.061224489795918 9.987630208333332  C 3.2713085234093637 9.428602430555554  3.3963585434173673 8.979383680555554  3.436374549819928 8.639973958333332  C 3.446378551420568 8.550130208333332  3.4338735494197676 8.39040798611111  3.398859543817527 8.160807291666668  C 3.363845538215286 7.931206597222221  3.3663465386154465 7.791449652777776  3.4063625450180073 7.741536458333332  C 3.446378551420568 7.611762152777776  3.5564225690276112 7.459526909722219  3.736494597839136 7.284830729166668  C 3.9165666266506602 7.110134548611111  4.026610644257703 6.997829861111111  4.066626650660264 6.947916666666668  C 4.256702681072429 6.6883680555555545  4.469287715086035 6.2666015625  4.704381752701081 5.6826171875  C 4.939475790316126 5.0986328125  5.077030812324931 4.616970486111111  5.1170468187274905 4.237630208333332  C 5.127050820328131 4.157769097222219  5.112044817927171 4.030490451388887  5.07202881152461 3.8557942708333326  C 5.032012805122049 3.681098090277776  5.022008803521409 3.548828125  5.042016806722689 3.458984375  C 5.06202480992397 3.3791232638888866  5.107042817126851 3.2892795138888866  5.177070828331332 3.189453125  C 5.2470988395358145 3.0896267361111107  5.337134853941577 2.9748263888888866  5.447178871548619 2.8450520833333326  C 5.557222889155663 2.715277777777776  5.642256902761105 2.6104600694444433  5.702280912364946 2.5305989583333326  C 5.782312925170069 2.4108072916666674  5.864845938375351 2.2585720486111107  5.949879951980792 2.0738932291666674  C 6.0349139655862345 1.8892144097222192  6.109943977591037 1.7145182291666674  6.174969987995198 1.5498046875  C 6.23999599839936 1.3850911458333326  6.320028011204483 1.2054036458333326  6.415066026410564 1.0107421875  C 6.510104041616647 0.8160807291666675  6.607643057222889 0.6563585069444433  6.707683073229291 0.5315755208333325  C 6.8077230892356955 0.4067925347222191  6.940276110444178 0.2894965277777758  7.105342136854742 0.1796875  C 7.270408163265307 0.0698784722222191  7.4504801920768315 0.012478298611110827  7.645558223289315 0.007486979166667518  C 7.840636254501801 0.0024956597222191013  8.078231292517007 0.029947916666667518  8.358343337334933 0.08984375  L 8.343337334933974 0.134765625  C 8.723489395758303 0.044921875  8.97859143657463 0  9.108643457382954 0  L 20.528211284513805 0  C 21.268507402961188 0  21.83873549419768 0.2795138888888866  22.23889555822329 0.8385416666666675  C 22.6390556222489 1.3975694444444433  22.729091636654665 2.046440972222219  22.50900360144058 2.78515625  L 18.39735894357743 16.3515625  C 18.03721488595438 17.539496527777775  17.679571828731493 18.3056640625  17.324429771908765 18.650065104166668  C 16.969287715086036 18.994466145833332  16.3265306122449 19.166666666666668  15.396158463385353 19  L 2.3559423769507806 19  C 2.0858343337334935 19.166666666666668  1.8957583033213286 19.241536458333332  1.7857142857142856 19.391276041666668  C 1.6756702681072428 19.55099826388889  1.6706682673069229 19.765625  1.7707082833133252 20.03515625  C 2.0108043217286915 20.733940972222225  2.73109243697479 21.083333333333332  3.93157262905162 21  L 17.782112845138055 21  C 18.072228891556623 21.083333333333332  18.35234093637455 21.005967881944443  18.622448979591837 20.851236979166668  C 18.89255702280912 20.69650607638889  19.06762705082033 20.489366319444443  19.14765906362545 20.229817708333332  L 23.649459783913564 5.450520833333332  C 23.71948779511805 5.230902777777776  23.74449779911965 4.946397569444443  23.72448979591837 4.597005208333332  Z M 8.958583433373349 4.3125  L 8.643457382953182 5.270833333333332  C 8.60344137655062 5.400607638888887  8.61344537815126 5.512912326388887  8.673469387755102 5.607747395833332  C 8.733493397358943 5.702582465277776  8.833533413365348 5.75  8.97358943577431 5.75  L 18.097238895558224 5.75  C 18.22729091636655 5.75  18.35484193677471 5.702582465277776  18.479891956782712 5.607747395833332  C 18.604941976790716 5.512912326388887  18.687474989996 5.400607638888887  18.72749099639856 5.270833333333332  L 19.042617046818727 4.3125  C 19.08263305322129 4.182725694444443  19.07262905162065 4.070421006944443  19.012605042016805 3.9755859375  C 18.952581032412965 3.880750868055554  18.852541016406565 3.8333333333333326  18.7124849939976 3.8333333333333326  L 9.588835534213686 3.8333333333333326  C 9.458783513405363 3.8333333333333326  9.331232492997199 3.880750868055554  9.206182472989195 3.9755859375  C 9.081132452981192 4.070421006944443  8.998599439775912 4.182725694444443  8.958583433373349 4.3125  Z M 7.713085234093637 8.145833333333332  L 7.3979591836734695 9.104166666666668  C 7.35794317727091 9.233940972222221  7.36794717887155 9.346245659722221  7.427971188475391 9.441080729166668  C 7.487995198079232 9.53591579861111  7.588035214085634 9.583333333333332  7.728091236494598 9.583333333333332  L 16.85174069627851 9.583333333333332  C 16.981792717086837 9.583333333333332  17.109343737495 9.53591579861111  17.234393757503 9.441080729166668  C 17.359443777511007 9.346245659722221  17.44197679071629 9.233940972222221  17.48199279711885 9.104166666666668  L 17.797118847539014 8.145833333333332  C 17.837134853941578 8.016059027777775  17.827130852340936 7.903754340277776  17.767106842737096 7.808919270833332  C 17.707082833133253 7.714084201388889  17.607042817126853 7.666666666666668  17.466986794717887 7.666666666666668  L 8.343337334933974 7.666666666666668  C 8.21328531412565 7.666666666666668  8.085734293717488 7.714084201388889  7.960684273709484 7.808919270833332  C 7.835634253701482 7.903754340277776  7.753101240496199 8.016059027777775  7.713085234093637 8.145833333333332  Z " fill-rule="nonzero" fill="#93d3ee" stroke="none" transform="matrix(1 0 0 1 404 75 )" />
  </g>
</svg>