<?xml version="1.0" encoding="utf-8"?>
<svg version="1.1" xmlns:xlink="http://www.w3.org/1999/xlink" width="25px" height="23px" xmlns="http://www.w3.org/2000/svg">
  <g transform="matrix(1 0 0 1 -578 -76 )">
    <path d="M 4.6875 11.5  L 7.8125 11.5  L 7.8125 19.166666666666668  L 4.6875 19.166666666666668  L 4.6875 11.5  Z M 9.375 3.8333333333333326  L 12.5 3.8333333333333326  L 12.5 19.166666666666668  L 9.375 19.166666666666668  L 9.375 3.8333333333333326  Z M 2 21  L 25 21  L 25 23  L 0 23  L 0 0  L 2 0  L 2 21  Z M 14 7.666666666666668  L 17 7.666666666666668  L 17 19.166666666666668  L 14 19.166666666666668  L 14 7.666666666666668  Z M 18.75 1.9166666666666674  L 21.875 1.9166666666666674  L 21.875 19.166666666666668  L 18.75 19.166666666666668  L 18.75 1.9166666666666674  Z " fill-rule="nonzero" fill="#93d3ee" stroke="none" transform="matrix(1 0 0 1 578 76 )" />
  </g>
</svg>