<?xml version="1.0" encoding="utf-8"?>
<svg version="1.1" xmlns:xlink="http://www.w3.org/1999/xlink" width="17px" height="17px" viewBox="346 330  17 17" xmlns="http://www.w3.org/2000/svg">
  <path d="M 354.5 330  C 359.26 330  363 333.74  363 338.5  C 363 343.26  359.26 347  354.5 347  C 349.74 347  346 343.26  346 338.5  C 346 333.74  349.74 330  354.5 330  Z " fill-rule="nonzero" fill="#f0f0f0" stroke="none" />
  <path d="M 354.5 330.5  C 358.98 330.5  362.5 334.02  362.5 338.5  C 362.5 342.98  358.98 346.5  354.5 346.5  C 350.02 346.5  346.5 342.98  346.5 338.5  C 346.5 334.02  350.02 330.5  354.5 330.5  Z " stroke-width="1" stroke="#797979" fill="none" />
  <path d="M 354.5 342.75  C 352.12 342.75  350.25 340.88  350.25 338.5  C 350.25 336.12  352.12 334.25  354.5 334.25  C 356.88 334.25  358.75 336.12  358.75 338.5  C 358.75 340.88  356.88 342.75  354.5 342.75  " fill-rule="nonzero" fill="#797979" stroke="none" />
</svg>