<?xml version="1.0" encoding="utf-8"?>
<svg version="1.1" xmlns:xlink="http://www.w3.org/1999/xlink" width="17px" height="17px" viewBox="346 286  17 17" xmlns="http://www.w3.org/2000/svg">
  <path d="M 354.5 286  C 359.26 286  363 289.74  363 294.5  C 363 299.26  359.26 303  354.5 303  C 349.74 303  346 299.26  346 294.5  C 346 289.74  349.74 286  354.5 286  Z " fill-rule="nonzero" fill="#ffffff" stroke="none" />
  <path d="M 354.5 286.5  C 358.98 286.5  362.5 290.02  362.5 294.5  C 362.5 298.98  358.98 302.5  354.5 302.5  C 350.02 302.5  346.5 298.98  346.5 294.5  C 346.5 290.02  350.02 286.5  354.5 286.5  Z " stroke-width="1" stroke="#797979" fill="none" />
  <path d="M 354.5 298.75  C 352.12 298.75  350.25 296.88  350.25 294.5  C 350.25 292.12  352.12 290.25  354.5 290.25  C 356.88 290.25  358.75 292.12  358.75 294.5  C 358.75 296.88  356.88 298.75  354.5 298.75  " fill-rule="nonzero" fill="#797979" stroke="none" />
</svg>