<?xml version="1.0" encoding="utf-8"?>
<svg version="1.1" xmlns:xlink="http://www.w3.org/1999/xlink" width="17px" height="17px" viewBox="346 471  17 17" xmlns="http://www.w3.org/2000/svg">
  <path d="M 354.5 471  C 359.26 471  363 474.74  363 479.5  C 363 484.26  359.26 488  354.5 488  C 349.74 488  346 484.26  346 479.5  C 346 474.74  349.74 471  354.5 471  Z " fill-rule="nonzero" fill="#f0f0f0" stroke="none" />
  <path d="M 354.5 471.5  C 358.98 471.5  362.5 475.02  362.5 479.5  C 362.5 483.98  358.98 487.5  354.5 487.5  C 350.02 487.5  346.5 483.98  346.5 479.5  C 346.5 475.02  350.02 471.5  354.5 471.5  Z " stroke-width="1" stroke="#797979" fill="none" />
  <path d="M 354.5 483.75  C 352.12 483.75  350.25 481.88  350.25 479.5  C 350.25 477.12  352.12 475.25  354.5 475.25  C 356.88 475.25  358.75 477.12  358.75 479.5  C 358.75 481.88  356.88 483.75  354.5 483.75  " fill-rule="nonzero" fill="#797979" stroke="none" />
</svg>