<?xml version="1.0" encoding="utf-8"?>
<svg version="1.1" xmlns:xlink="http://www.w3.org/1999/xlink" width="36px" height="36px" xmlns="http://www.w3.org/2000/svg">
  <g transform="matrix(1 0 0 1 -1783 -196 )">
    <path d="M 28.0546875 20.554687500000004  C 28.3515625 20.2578125  28.5 19.90625  28.5 19.500000000000004  L 28.5 16.5  C 28.5 16.093749999999996  28.3515625 15.742187499999998  28.0546875 15.445312500000002  C 27.757812500000004 15.1484375  27.406250000000004 14.999999999999998  27 14.999999999999998  L 21 14.999999999999998  L 21 9  C 21 8.593749999999996  20.851562500000004 8.242187499999996  20.5546875 7.9453125  C 20.257812500000004 7.6484375  19.906250000000004 7.500000000000002  19.5 7.500000000000002  L 16.5 7.500000000000002  C 16.09375 7.500000000000002  15.742187500000002 7.6484375  15.4453125 7.9453125  C 15.1484375 8.242187499999996  15 8.593749999999996  15 9  L 15 14.999999999999998  L 9 14.999999999999998  C 8.59375 14.999999999999998  8.2421875 15.1484375  7.9453125 15.445312500000002  C 7.648437500000001 15.742187499999998  7.5 16.093749999999996  7.5 16.5  L 7.5 19.500000000000004  C 7.5 19.90625  7.648437500000001 20.2578125  7.9453125 20.554687500000004  C 8.2421875 20.8515625  8.59375 20.999999999999996  9 20.999999999999996  L 15 20.999999999999996  L 15 27  C 15 27.40625  15.1484375 27.7578125  15.4453125 28.0546875  C 15.742187500000002 28.3515625  16.09375 28.5  16.5 28.5  L 19.5 28.5  C 19.906250000000004 28.5  20.257812500000004 28.3515625  20.5546875 28.0546875  C 20.851562500000004 27.7578125  21 27.40625  21 27  L 21 20.999999999999996  L 27 20.999999999999996  C 27.406250000000004 20.999999999999996  27.757812500000004 20.8515625  28.0546875 20.554687500000004  Z M 33.5859375 8.96484375  C 35.19531249999999 11.722656249999996  36 14.734374999999995  36 18  C 36 21.265625  35.19531249999999 24.277343749999996  33.5859375 27.03515625  C 31.976562500000004 29.79296875  29.79296875 31.9765625  27.03515625 33.5859375  C 24.277343750000004 35.1953125  21.265625 36  18 36  C 14.734375000000002 36  11.72265625 35.1953125  8.96484375 33.5859375  C 6.207031250000001 31.9765625  4.0234375 29.79296875  2.4140625 27.03515625  C 0.8046874999999999 24.277343749999996  0 21.265625  0 18  C 0 14.734374999999995  0.8046874999999999 11.722656249999996  2.4140625 8.96484375  C 4.0234375 6.20703125  6.207031250000001 4.0234374999999964  8.96484375 2.4140624999999987  C 11.72265625 0.8046874999999969  14.734375000000002 0  18 0  C 21.265625 0  24.277343750000004 0.8046874999999969  27.03515625 2.4140624999999987  C 29.79296875 4.0234374999999964  31.976562500000004 6.20703125  33.5859375 8.96484375  Z " fill-rule="nonzero" fill="#000000" stroke="none" transform="matrix(1 0 0 1 1783 196 )" />
  </g>
</svg>